HIERARCHY
ROOT Hips
{
	OFFSET 0.000000 0.000000 0.000000
	CHANNELS 6 Xposition Yposition Zposition Xrotation Yrotation Zrotation
	JOINT LeftUpLeg_virtual
	{
		OFFSET 0.000000 0.000000 0.000000
		CHANNELS 3 Xrotation Yrotation Zrotation
		JOINT LeftUpLeg
		{
			OFFSET 15.427100 -6.655098 0.678600
			CHANNELS 3 Xrotation Yrotation Zrotation
			JOINT LeftLeg
			{
				OFFSET 4.081073 -39.591068 13.024000
				CHANNELS 3 Xrotation Yrotation Zrotation
				JOINT LeftFoot
				{
					OFFSET -4.081074 -37.707932 -15.979700
					CHANNELS 3 Xrotation Yrotation Zrotation
					JOINT LeftToeBase
					{
						OFFSET 5.346399 -15.068900 20.645000
						CHANNELS 3 Xrotation Yrotation Zrotation
						JOINT LeftToe_End
						{
							OFFSET 2.754700 0.931300 11.300900
							CHANNELS 3 Xrotation Yrotation Zrotation
							End Site
							{
								OFFSET 0 0 0
							}
						}
					}
				}
			}
		}
	}
	JOINT RightUpLeg_virtual
	{
		OFFSET 0.000000 0.000000 0.000000
		CHANNELS 3 Xrotation Yrotation Zrotation
		JOINT RightUpLeg
		{
			OFFSET -15.569500 -6.655098 0.678600
			CHANNELS 3 Xrotation Yrotation Zrotation
			JOINT RightLeg
			{
				OFFSET -4.081825 -39.591045 13.023800
				CHANNELS 3 Xrotation Yrotation Zrotation
				JOINT RightFoot
				{
					OFFSET 4.081824 -37.707954 -15.979600
					CHANNELS 3 Xrotation Yrotation Zrotation
					JOINT RightToeBase
					{
						OFFSET -5.346400 -15.068900 20.645000
						CHANNELS 3 Xrotation Yrotation Zrotation
						JOINT RightToe_End
						{
							OFFSET -2.754700 0.931300 11.300900
							CHANNELS 3 Xrotation Yrotation Zrotation
							End Site
							{
								OFFSET 0 0 0
							}
						}
					}
				}
			}
		}
	}
	JOINT Spine_virtual
	{
		OFFSET 0.000000 0.000000 0.000000
		CHANNELS 3 Xrotation Yrotation Zrotation
		JOINT Spine
		{
			OFFSET -0.279200 12.230698 -2.892100
			CHANNELS 3 Xrotation Yrotation Zrotation
			JOINT Spine1
			{
				OFFSET -0.232667 10.192268 -1.242267
				CHANNELS 3 Xrotation Yrotation Zrotation
				JOINT Spine1_split
				{
					OFFSET -0.232667 10.192268 -1.242267
					CHANNELS 3 Xrotation Yrotation Zrotation
					JOINT Spine2
					{
						OFFSET -0.232667 10.192268 -1.242267
						CHANNELS 3 Xrotation Yrotation Zrotation
						JOINT Neck_virtual
						{
							OFFSET 0.000000 0.000000 0.000000
							CHANNELS 3 Xrotation Yrotation Zrotation
							JOINT Neck
							{
								OFFSET -0.418800 17.814194 8.416900
								CHANNELS 3 Xrotation Yrotation Zrotation
								JOINT Head
								{
									OFFSET 0.000000 7.031097 3.806800
									CHANNELS 3 Xrotation Yrotation Zrotation
									JOINT HeadTop_End
									{
										OFFSET 0.000000 24.646606 12.978600
										CHANNELS 3 Xrotation Yrotation Zrotation
										End Site
										{
											OFFSET 0 0 0
										}
									}
								}
							}
						}
						JOINT LeftShoulder_virtual
						{
							OFFSET 0.000000 0.000000 0.000000
							CHANNELS 3 Xrotation Yrotation Zrotation
							JOINT LeftShoulder
							{
								OFFSET 8.476499 7.247704 -3.868750
								CHANNELS 3 Xrotation Yrotation Zrotation
								JOINT LeftShoulder_split
								{
									OFFSET 8.476499 7.247704 -3.868750
									CHANNELS 3 Xrotation Yrotation Zrotation
									JOINT LeftArm
									{
										OFFSET 9.308998 -2.777710 0.208600
										CHANNELS 3 Xrotation Yrotation Zrotation
										JOINT LeftForeArm
										{
											OFFSET 29.972298 0.000000 0.000000
											CHANNELS 3 Xrotation Yrotation Zrotation
											JOINT LeftHand
											{
												OFFSET 26.026505 0.000000 0.000000
												CHANNELS 3 Xrotation Yrotation Zrotation
												End Site
												{
													OFFSET 0 0 0
												}
											}
										}
									}
								}
							}
						}
						JOINT RightShoulder_virtual
						{
							OFFSET 0.000000 0.000000 0.000000
							CHANNELS 3 Xrotation Yrotation Zrotation
							JOINT RightShoulder
							{
								OFFSET -7.570500 7.247704 -3.868750
								CHANNELS 3 Xrotation Yrotation Zrotation
								JOINT RightShoulder_split
								{
									OFFSET -7.570500 7.247704 -3.868750
									CHANNELS 3 Xrotation Yrotation Zrotation
									JOINT RightArm
									{
										OFFSET -9.308998 -2.777710 0.208500
										CHANNELS 3 Xrotation Yrotation Zrotation
										JOINT RightForeArm
										{
											OFFSET -29.972300 0.000000 0.000000
											CHANNELS 3 Xrotation Yrotation Zrotation
											JOINT RightHand
											{
												OFFSET -26.026505 0.000000 0.000000
												CHANNELS 3 Xrotation Yrotation Zrotation
												End Site
												{
													OFFSET 0 0 0
												}
											}
										}
									}
								}
							}
						}
					}
				}
			}
		}
	}
}
MOTION
Frames: 8
Frame Time: 0.03333333
0.688272 48.088074 19.992052 0.000000 0.000000 0.000000 9.783670 0.940185 2.148684 -95.272191 -13.039412 17.443917 83.261372 -0.524141 -3.761153 5.425918 -5.872115 -12.247486 -0.103119 0.000002 0.000000 0.000000 0.000000 0.000000 9.783670 0.940185 2.148684 -98.035857 17.004217 -14.903104 84.617820 1.358112 1.679811 7.279734 -0.788140 13.021973 -0.191627 -0.000002 -0.000000 0.000000 0.000000 0.000000 9.783670 0.940185 2.148684 6.362160 -1.775729 -1.408324 12.307231 -0.957519 -1.014769 0.000000 0.000000 0.000000 0.000000 0.000000 0.000000 12.300702 -1.002995 -1.017735 -3.622983 -0.575048 -0.242781 -52.425687 2.018625 -7.744213 0.000000 0.000000 0.000000 12.300702 -1.002995 -1.017735 2.110517 -13.413050 4.780008 0.000000 0.000000 0.000000 -60.316786 -31.265201 -11.184044 179.999991 -66.659142 -179.999991 0.000000 0.000000 0.000000 12.300702 -1.002995 -1.017735 1.406744 10.858770 -3.428318 0.000000 0.000000 0.000000 -74.231548 34.456132 29.321869 -179.999964 62.903071 179.999964 0.000000 0.000000 0.000000 
0.680440 48.144218 19.762541 0.000000 0.000000 0.000000 10.033668 1.055321 1.964410 -95.761513 -13.032756 17.319898 82.928011 -0.483534 -3.697645 5.924183 -5.942573 -12.044637 -0.103119 0.000002 0.000000 0.000000 0.000000 0.000000 10.033668 1.055321 1.964410 -98.184324 16.908212 -14.856742 84.316609 1.133724 1.694748 7.537233 -0.773950 13.109926 -0.191627 -0.000002 -0.000000 0.000000 0.000000 0.000000 10.033668 1.055321 1.964410 6.660541 -1.724834 -1.377663 12.424805 -1.025002 -1.058488 0.000000 0.000000 0.000000 0.000000 0.000000 0.000000 12.417987 -1.068097 -1.061768 -1.895616 -0.591971 -0.269630 -52.752078 2.205243 -7.750114 0.000000 0.000000 0.000000 12.417987 -1.068097 -1.061768 2.032563 -12.676387 5.127216 0.000000 0.000000 0.000000 -60.706407 -30.617115 -11.221782 -179.999964 -66.202893 -179.999964 0.000000 0.000000 0.000000 12.417987 -1.068097 -1.061768 1.410432 10.679837 -3.565133 0.000000 0.000000 0.000000 -74.164503 34.359075 28.526548 179.999964 62.873087 -179.999964 0.000000 0.000000 0.000000 
0.697479 48.125389 19.654961 0.000000 0.000000 0.000000 10.526962 1.239522 1.927738 -96.530012 -12.947181 17.062149 82.716350 -0.358508 -3.654176 6.340775 -6.025245 -11.837890 -0.103119 0.000001 0.000000 0.000000 0.000000 0.000000 10.526962 1.239522 1.927738 -98.709074 17.080567 -14.890859 84.187027 0.948151 1.699626 7.785669 -0.721193 13.209099 -0.191627 -0.000002 -0.000000 0.000000 0.000000 0.000000 10.526962 1.239522 1.927738 7.088941 -1.646361 -1.366213 12.767364 -1.020628 -1.140127 0.000000 0.000000 0.000000 0.000000 0.000000 0.000000 12.760492 -1.062331 -1.143888 1.301026 -0.746534 -0.517728 -52.329785 1.916441 -7.951303 0.000000 0.000000 0.000000 12.760492 -1.062331 -1.143888 2.068312 -12.394304 6.151574 0.000000 0.000000 0.000000 -58.624449 -28.929884 -12.183156 -179.999964 -65.051965 -179.999964 0.000000 0.000000 0.000000 12.760492 -1.062331 -1.143888 1.461466 11.134546 -3.330570 0.000000 0.000000 0.000000 -71.860489 33.821669 27.199867 -179.999991 62.565523 179.999991 0.000000 0.000000 0.000000 
0.711151 48.068878 19.662470 0.000000 0.000000 0.000000 11.095684 1.438926 1.990881 -97.232654 -12.846408 16.816762 82.651791 -0.283822 -3.664837 6.494409 -6.034208 -11.833755 -0.103119 0.000002 0.000000 0.000000 0.000000 0.000000 11.095684 1.438926 1.990881 -99.318928 17.420362 -15.004597 84.233458 0.895992 1.712594 7.878347 -0.699172 13.352041 -0.191627 -0.000002 -0.000000 0.000000 0.000000 0.000000 11.095684 1.438926 1.990881 7.561477 -1.546524 -1.376606 13.167894 -0.921942 -1.227742 0.000000 0.000000 0.000000 0.000000 0.000000 0.000000 13.161520 -0.962647 -1.229826 4.847724 -0.977130 -0.865296 -50.472349 1.193751 -8.236328 0.000000 0.000000 0.000000 13.161520 -0.962647 -1.229826 2.167037 -12.215276 7.794459 0.000000 0.000000 0.000000 -54.283229 -27.085337 -14.223962 -179.999978 -63.627570 -179.999964 0.000000 0.000000 0.000000 13.161520 -0.962647 -1.229826 1.506028 11.775372 -2.798578 0.000000 0.000000 0.000000 -67.693622 33.040350 25.501053 180.000005 62.236793 179.999991 0.000000 0.000000 0.000000 
0.707664 48.093254 19.698063 0.000000 0.000000 0.000000 11.534589 1.574286 2.000023 -97.618491 -12.790857 16.686786 82.582410 -0.282797 -3.678161 6.479465 -6.003359 -11.914696 -0.103119 0.000002 0.000000 0.000000 0.000000 0.000000 11.534589 1.574286 2.000023 -99.619941 17.619950 -15.094353 84.246627 0.871669 1.730943 7.804890 -0.724143 13.505844 -0.191627 -0.000001 -0.000000 0.000000 0.000000 0.000000 11.534589 1.574286 2.000023 7.976177 -1.451178 -1.396767 13.423682 -0.778729 -1.275637 0.000000 0.000000 0.000000 0.000000 0.000000 0.000000 13.418333 -0.818348 -1.272997 7.357067 -1.163097 -1.106202 -47.701662 0.354555 -8.399674 0.000000 0.000000 0.000000 13.418333 -0.818348 -1.272997 2.239050 -11.926238 9.537965 0.000000 0.000000 0.000000 -49.655397 -26.049073 -16.523720 -179.999978 -62.601388 -179.999978 0.000000 0.000000 0.000000 13.418333 -0.818348 -1.272997 1.516740 12.145109 -2.309170 0.000000 0.000000 0.000000 -63.475823 32.392818 23.799946 -179.999964 62.123767 179.999964 0.000000 0.000000 0.000000 
0.710486 48.202820 19.713091 0.000000 0.000000 0.000000 11.768127 1.602403 1.880885 -97.779301 -12.818812 16.666956 82.461632 -0.264700 -3.640102 6.503951 -6.026567 -11.839724 -0.103119 0.000002 0.000000 0.000000 0.000000 0.000000 11.768127 1.602403 1.880885 -99.594485 17.533251 -15.063552 84.124544 0.741554 1.742573 7.706362 -0.747828 13.599532 -0.191627 -0.000001 -0.000000 0.000000 0.000000 0.000000 11.768127 1.602403 1.880885 8.238297 -1.392279 -1.409219 13.345373 -0.676466 -1.256048 0.000000 0.000000 0.000000 0.000000 0.000000 0.000000 13.340828 -0.714974 -1.248167 8.090310 -1.226759 -1.132735 -45.439374 -0.233737 -8.333603 0.000000 0.000000 0.000000 13.340828 -0.714974 -1.248167 2.216654 -11.554272 10.616235 0.000000 0.000000 0.000000 -46.960785 -26.058372 -17.681948 179.999991 -62.415778 179.999991 0.000000 0.000000 0.000000 13.340828 -0.714974 -1.248167 1.518411 12.103814 -2.287489 0.000000 0.000000 0.000000 -61.275034 32.072376 22.757705 -179.999937 62.151866 179.999937 0.000000 0.000000 0.000000 
0.723766 48.238876 19.736959 0.000000 0.000000 0.000000 11.868173 1.545337 1.744120 -97.897682 -12.940711 16.729146 82.470716 -0.271344 -3.615489 6.517884 -6.052320 -11.761795 -0.103119 0.000003 0.000000 0.000000 0.000000 0.000000 11.868173 1.545337 1.744120 -99.573879 17.396203 -14.978782 84.059002 0.661167 1.750935 7.653924 -0.756124 13.650743 -0.191627 -0.000001 -0.000000 0.000000 0.000000 0.000000 11.868173 1.545337 1.744120 8.290029 -1.391672 -1.406112 12.816532 -0.670413 -1.174162 0.000000 0.000000 0.000000 0.000000 0.000000 0.000000 12.812285 -0.707193 -1.162424 7.350113 -1.197290 -1.016206 -44.739477 -0.441948 -8.175059 0.000000 0.000000 0.000000 12.812285 -0.707193 -1.162424 2.125291 -11.358061 10.412161 0.000000 0.000000 0.000000 -46.776530 -26.808510 -16.718351 -179.999964 -62.968866 -179.999964 0.000000 0.000000 0.000000 12.812285 -0.707193 -1.162424 1.537318 11.819864 -2.920741 0.000000 0.000000 0.000000 -61.666131 31.849616 22.785275 -179.999964 61.964808 179.999964 0.000000 0.000000 0.000000 
0.749912 48.124802 19.813148 0.000000 0.000000 0.000000 11.980644 1.455766 1.739829 -98.071271 -13.095146 16.815268 82.705292 -0.311478 -3.660820 6.394116 -6.018231 -11.875494 -0.103119 0.000002 0.000000 0.000000 0.000000 0.000000 11.980644 1.455766 1.739829 -99.834505 17.449996 -14.928956 84.195127 0.754521 1.762474 7.646518 -0.759347 13.690219 -0.191627 -0.000001 -0.000000 0.000000 0.000000 0.000000 11.980644 1.455766 1.739829 8.137254 -1.438068 -1.392601 11.845323 -0.747137 -1.058915 0.000000 0.000000 0.000000 0.000000 0.000000 0.000000 11.841117 -0.780253 -1.043560 5.985527 -1.164709 -0.904971 -45.349092 -0.445056 -8.213914 0.000000 0.000000 0.000000 11.841117 -0.780253 -1.043560 2.047181 -11.694171 8.828352 0.000000 0.000000 0.000000 -47.822717 -28.019763 -13.735354 -179.999964 -63.682642 -179.999978 0.000000 0.000000 0.000000 11.841117 -0.780253 -1.043560 1.571546 11.503134 -4.016881 0.000000 0.000000 0.000000 -63.354690 31.237757 23.675254 179.999978 61.218193 -179.999978 0.000000 0.000000 0.000000 
